<svg width="148" height="146" viewBox="0 0 148 146" fill="none" xmlns="http://www.w3.org/2000/svg">
<path d="M66.6 109.5H81.4V80.3H111V65.7H81.4V36.5H66.6V65.7H37V80.3H66.6V109.5ZM74 146C63.7633 146 54.1433 144.114 45.14 140.343C36.1367 136.449 28.305 131.217 21.645 124.647C14.985 118.077 9.68167 110.352 5.735 101.47C1.91167 92.5883 0 83.0983 0 73C0 62.9017 1.91167 53.4117 5.735 44.53C9.68167 35.6483 14.985 27.9225 21.645 21.3525C28.305 14.7825 36.1367 9.61166 45.14 5.83999C54.1433 1.94666 63.7633 0 74 0C84.2367 0 93.8567 1.94666 102.86 5.83999C111.863 9.61166 119.695 14.7825 126.355 21.3525C133.015 27.9225 138.257 35.6483 142.08 44.53C146.027 53.4117 148 62.9017 148 73C148 83.0983 146.027 92.5883 142.08 101.47C138.257 110.352 133.015 118.077 126.355 124.647C119.695 131.217 111.863 136.449 102.86 140.343C93.8567 144.114 84.2367 146 74 146ZM74 131.4C90.5267 131.4 104.525 125.743 115.995 114.427C127.465 103.112 133.2 89.3033 133.2 73C133.2 56.6967 127.465 42.8875 115.995 31.5725C104.525 20.2575 90.5267 14.6 74 14.6C57.4733 14.6 43.475 20.2575 32.005 31.5725C20.535 42.8875 14.8 56.6967 14.8 73C14.8 89.3033 20.535 103.112 32.005 114.427C43.475 125.743 57.4733 131.4 74 131.4Z" fill="#00ADB5"/>
</svg>
